<svg width="25" height="24" viewBox="0 0 25 24" fill="none" xmlns="http://www.w3.org/2000/svg">
<g clip-path="url(#clip0_605_3450)">
<path d="M22.8333 5.18L11.4233 16.6L7.18331 12.36L8.59331 10.95L11.4233 13.78L21.4233 3.78L22.8333 5.18ZM20.6233 10.22C20.7533 10.79 20.8333 11.39 20.8333 12C20.8333 16.42 17.2533 20 12.8333 20C8.41331 20 4.83331 16.42 4.83331 12C4.83331 7.58 8.41331 4 12.8333 4C14.4133 4 15.8733 4.46 17.1133 5.25L18.5533 3.81C16.9333 2.67 14.9633 2 12.8333 2C7.31331 2 2.83331 6.48 2.83331 12C2.83331 17.52 7.31331 22 12.8333 22C18.3533 22 22.8333 17.52 22.8333 12C22.8333 10.81 22.6133 9.67 22.2333 8.61L20.6233 10.22Z" fill="white"/>
</g>
<defs>
<clipPath id="clip0_605_3450">
<rect width="24" height="24" fill="white" transform="translate(0.833313)"/>
</clipPath>
</defs>
</svg>
