<svg width="25" height="24" viewBox="0 0 25 24" fill="none" xmlns="http://www.w3.org/2000/svg">
<path d="M12.5 12C14.7094 12 16.5 10.2171 16.5 8.01724C16.5 5.81739 14.7094 4.03448 12.5 4.03448C10.2906 4.03448 8.5 5.81739 8.5 8.01724C8.5 10.2171 10.2906 12 12.5 12ZM15.3 12.9957H14.7781C14.0844 13.3131 13.3125 13.4935 12.5 13.4935C11.6875 13.4935 10.9188 13.3131 10.2219 12.9957H9.7C7.38125 12.9957 5.5 14.8688 5.5 17.1776V18.472C5.5 19.2965 6.17188 19.9655 7 19.9655H18C18.8281 19.9655 19.5 19.2965 19.5 18.472V17.1776C19.5 14.8688 17.6187 12.9957 15.3 12.9957Z" fill="white"/>
</svg>