<svg xmlns="http://www.w3.org/2000/svg" width="24" height="24" viewBox="0 0 24 24" fill="none">
  <path d="M21.0299 10.71C21.3804 9.85204 21.4975 8.9166 21.3694 7.99873C21.2412 7.08085 20.8724 6.21324 20.3004 5.48408C19.7283 4.75491 18.9735 4.19016 18.1125 3.84722C17.2515 3.50428 16.315 3.39537 15.3983 3.53156C14.8302 2.79976 14.0786 2.23132 13.2197 1.88397C12.3609 1.53661 11.4254 1.42271 10.5083 1.55382C9.5912 1.68493 8.72512 2.05639 7.998 2.63047C7.27088 3.20456 6.70863 3.96083 6.36832 4.82249C5.45007 4.94819 4.58146 5.31472 3.85076 5.88486C3.12006 6.45499 2.5533 7.20839 2.20809 8.06852C1.86288 8.92864 1.75152 9.86481 1.88532 10.7819C2.01912 11.699 2.39332 12.5644 2.96988 13.29C2.68853 13.9795 2.55708 14.721 2.58426 15.4652C2.61144 16.2093 2.79663 16.9392 3.12754 17.6064C3.45845 18.2735 3.9275 18.8626 4.50354 19.3346C5.07958 19.8065 5.74944 20.1505 6.46863 20.3437C6.91442 20.4658 7.37427 20.5288 7.83645 20.5312C8.09281 20.5309 8.34881 20.5118 8.60239 20.4741C9.17061 21.2056 9.92226 21.7738 10.781 22.1209C11.6398 22.468 12.5752 22.5818 13.4921 22.4506C14.4091 22.3194 15.275 21.9479 16.002 21.3739C16.729 20.7999 17.2912 20.0437 17.6314 19.1822C18.5497 19.0565 19.4183 18.6899 20.149 18.1198C20.8797 17.5497 21.4465 16.7963 21.7917 15.9362C22.1369 15.076 22.2482 14.1399 22.1144 13.2228C21.9806 12.3057 21.6065 11.4403 21.0299 10.7147V10.71ZM17.1421 5.10281C18.0871 5.35545 18.8961 5.96739 19.3963 6.8081C19.8965 7.6488 20.0484 8.65169 19.8196 9.60281C19.7306 9.5432 19.6396 9.48661 19.5468 9.43312L15.3749 7.01999C15.2609 6.95417 15.1315 6.91951 14.9999 6.91951C14.8682 6.91951 14.7389 6.95417 14.6249 7.01999L10.4999 9.40218V7.66968L14.2968 5.47781C14.7227 5.23039 15.1935 5.06986 15.6819 5.00549C16.1703 4.94113 16.6666 4.9742 17.1421 5.10281ZM13.4999 12.8662L11.9999 13.7325L10.4999 12.8662V11.1337L11.9999 10.2675L13.4999 11.1337V12.8662ZM7.49988 6.74999C7.50023 6.01687 7.71546 5.29993 8.11896 4.68783C8.52246 4.07574 9.09653 3.59534 9.77016 3.30606C10.4438 3.01677 11.1875 2.93129 11.9092 3.06018C12.6309 3.18906 13.299 3.52667 13.8308 4.03124C13.7371 4.07906 13.6433 4.12499 13.5496 4.18312L9.37488 6.58781C9.26098 6.65357 9.16638 6.74812 9.10056 6.86199C9.03474 6.97586 9.00002 7.10503 8.99988 7.23656V12L7.49988 11.1337V6.74999ZM3.83051 8.14968C4.30836 7.31631 5.08957 6.69967 6.01113 6.42843C6.0041 6.53548 6.00035 6.64272 5.99988 6.74999V11.5669C5.99986 11.6985 6.0345 11.8279 6.10032 11.942C6.16615 12.056 6.26085 12.1507 6.37488 12.2166L10.4999 14.5978L8.99988 15.4687L5.20301 13.2722C4.34174 12.7749 3.71328 11.9558 3.45589 10.9952C3.1985 10.0345 3.33325 9.01098 3.83051 8.14968ZM6.8577 18.8972C5.91262 18.6445 5.10368 18.0326 4.60347 17.1919C4.10325 16.3512 3.95136 15.3483 4.1802 14.3972C4.26926 14.4562 4.35926 14.5134 4.45301 14.5669L8.62488 16.98C8.7389 17.0458 8.86823 17.0805 8.99988 17.0805C9.13154 17.0805 9.26087 17.0458 9.37488 16.98L13.4999 14.5978V16.3303L9.70301 18.5222C9.27705 18.7696 8.80627 18.9301 8.31789 18.9945C7.82951 19.0589 7.33322 19.0258 6.8577 18.8972ZM16.4999 17.25C16.5003 17.9833 16.2856 18.7007 15.8826 19.3133C15.4795 19.9259 14.9056 20.4069 14.2319 20.6967C13.5583 20.9865 12.8145 21.0725 12.0925 20.9439C11.3705 20.8154 10.7021 20.478 10.1699 19.9734C10.2636 19.9256 10.3574 19.875 10.4511 19.8206L14.6249 17.4122C14.7388 17.3464 14.8334 17.2519 14.8992 17.138C14.965 17.0241 14.9997 16.895 14.9999 16.7634V12L16.4999 12.8662V17.25ZM20.1693 15.8503C19.6914 16.6837 18.9102 17.3003 17.9886 17.5716C17.9952 17.4647 17.9999 17.3578 17.9999 17.25V12.4331C17.9999 12.3014 17.9653 12.1721 17.8994 12.058C17.8336 11.944 17.7389 11.8493 17.6249 11.7834L13.4999 9.40218L14.9999 8.53593L18.7968 10.7278C19.658 11.2251 20.2865 12.0442 20.5439 13.0048C20.8013 13.9655 20.6665 14.989 20.1693 15.8503Z" fill="white"/>
</svg>