<svg width="499" height="442" viewBox="0 0 499 442" fill="none" xmlns="http://www.w3.org/2000/svg">
<mask id="mask0_361_734" style="mask-type:luminance" maskUnits="userSpaceOnUse" x="251" y="154" width="92" height="159">
<path fill-rule="evenodd" clip-rule="evenodd" d="M251.122 154.169H342.501V312.787H251.122V154.169Z" fill="white"/>
</mask>
<g mask="url(#mask0_361_734)">
<path d="M320.753 154.17C322.763 164.235 317.73 174.617 310.482 181.865C303.234 189.129 293.961 193.94 285.114 199.114C276.252 204.289 267.406 210.192 261.851 218.817C257.008 226.318 255.03 235.307 254.017 244.169C252.751 254.93 252.925 266.214 256.344 276.342C258.828 270.234 262.073 264.394 265.76 258.934C273.008 248.189 281.933 238.709 290.811 229.278C301.193 218.263 311.558 207.264 321.94 196.25C311.194 216.38 294.546 232.617 280.477 250.579C266.409 268.556 254.413 290.015 255.727 312.804C256.771 301.141 266.235 291.883 276.505 286.249C286.776 280.615 298.281 277.466 308.393 271.579C327.526 260.438 340.392 239.2 341.389 217.076C342.402 194.699 332.195 173.414 320.753 154.17Z" fill="#67A845"/>
</g>
<mask id="mask1_361_734" style="mask-type:luminance" maskUnits="userSpaceOnUse" x="179" y="162" width="71" height="124">
<path fill-rule="evenodd" clip-rule="evenodd" d="M249.909 162.715H179.327V285.108H249.909V162.715Z" fill="white"/>
</mask>
<g mask="url(#mask1_361_734)">
<path d="M196.126 162.714C194.573 170.48 198.46 178.491 204.059 184.083C209.657 189.688 216.821 193.4 223.654 197.393C230.499 201.387 237.332 205.941 241.623 212.596C245.363 218.384 246.891 225.32 247.673 232.159C248.651 240.462 248.517 249.169 245.876 256.984C243.957 252.27 241.451 247.764 238.603 243.552C233.005 235.26 226.111 227.946 219.253 220.668C211.234 212.169 203.228 203.682 195.209 195.183C203.509 210.716 216.368 223.244 227.235 237.104C238.102 250.976 247.368 267.534 246.353 285.118C245.546 276.119 238.237 268.975 230.303 264.628C222.37 260.281 213.483 257.851 205.672 253.308C190.894 244.712 180.956 228.324 180.186 211.253C179.404 193.987 187.288 177.563 196.126 162.714Z" fill="#8CC342"/>
</g>
<mask id="mask2_361_734" style="mask-type:luminance" maskUnits="userSpaceOnUse" x="0" y="0" width="499" height="440">
<path fill-rule="evenodd" clip-rule="evenodd" d="M0 0H499V439.979H0V0Z" fill="white"/>
</mask>
<g mask="url(#mask2_361_734)">
<path d="M289.659 370.956C290.603 371.61 291.551 372.265 292.474 372.897L314.418 387.194C350.128 355.932 383.775 323.388 417.153 287.82L364.562 291.951L364.926 240.842C329.65 278.376 293.842 312.575 255.604 345.253L257.535 346.848C258.391 347.55 259.247 348.244 260.104 348.937C260.745 349.456 261.386 349.974 262.031 350.486C262.897 351.178 263.763 351.86 264.63 352.539L266.531 354.031C267.414 354.716 268.295 355.391 269.174 356.063L271.012 357.469C271.924 358.16 272.831 358.839 273.737 359.513L275.459 360.801C276.424 361.516 277.377 362.209 278.33 362.907L279.854 364.022C281.04 364.88 282.214 365.721 283.386 366.555L284.16 367.107C285.582 368.119 286.986 369.103 288.371 370.067L289.659 370.956Z" fill="#00476D"/>
</g>
<mask id="mask3_361_734" style="mask-type:luminance" maskUnits="userSpaceOnUse" x="372" y="23" width="125" height="261">
<path fill-rule="evenodd" clip-rule="evenodd" d="M372.124 23.793H496.992V283.866H372.124V23.793Z" fill="white"/>
</mask>
<g mask="url(#mask3_361_734)">
<path d="M454.366 246.725C457.275 243.428 460.169 240.083 463.044 236.741L463.191 236.564C485.415 210.394 497.717 173.891 496.956 136.412C496.168 97.4263 481.119 61.3468 455.667 37.4244C450.376 32.4545 444.557 27.9061 438.287 23.8403L438.335 23.9015C439.168 24.9342 439.981 25.9881 440.772 27.0588L441.119 27.5225C441.96 28.6817 442.768 29.8536 443.552 31.0423L444.062 31.8222C444.837 33.0214 445.592 34.2355 446.315 35.4706L446.536 35.8605C447.213 37.0366 447.86 38.219 448.479 39.4141L448.85 40.1202C449.495 41.3763 450.107 42.6515 450.697 43.9435L451.057 44.755C451.643 46.0702 452.208 47.3938 452.733 48.7385C453.304 50.1928 453.797 51.5776 454.271 52.975L454.56 53.8286C455.011 55.2028 455.437 56.5813 455.829 57.9744L456.029 58.7227C456.388 60.0337 456.725 61.3636 457.033 62.7062L457.161 63.2416C457.481 64.679 457.77 66.1333 458.034 67.5961L458.2 68.5466C458.451 70.0178 458.681 71.4995 458.87 72.996L458.932 73.5187C459.104 74.9245 459.248 76.343 459.366 77.7657L459.435 78.5856C459.551 80.0905 459.636 81.6122 459.69 83.1445L459.72 84.0972C459.764 85.6843 459.787 87.2756 459.766 88.8817C459.227 132.29 435.608 177.74 402.327 199.411L399.701 201.1L373.203 176.343L372.423 283.515L479.283 275.118L451.856 249.57L454.366 246.725Z" fill="#7FB23B"/>
</g>
<mask id="mask4_361_734" style="mask-type:luminance" maskUnits="userSpaceOnUse" x="0" y="0" width="499" height="440">
<path fill-rule="evenodd" clip-rule="evenodd" d="M0 0H499V439.979H0V0Z" fill="white"/>
</mask>
<g mask="url(#mask4_361_734)">
<path d="M413.085 11.018C396.316 4.48205 378.443 0.985387 359.959 0.624971C330.048 0.0348167 299.824 9.19907 275.101 26.3915L278.943 116.089C288.59 107.308 299.32 97.5621 310.194 87.8709C322.891 77.1765 340.471 70.8133 357.252 70.8133C357.701 70.8133 358.148 70.8175 358.597 70.8239C377.516 71.1864 396.285 77.9942 407.582 88.5917C426.853 106.697 432.097 143.423 420.869 172.042C439.64 149.184 451.608 117.61 451.966 88.7772C452.252 65.7928 445.731 33.6568 413.085 11.018Z" fill="#00476D"/>
<path d="M7.63501 95.5674C8.30736 94.6738 8.99658 93.7948 9.69844 92.9244L10.0462 92.4839C10.2928 92.174 10.5373 91.8642 10.7902 91.5628C12.0253 90.0811 13.2056 88.7406 14.3965 87.4697C15.6801 86.0954 16.9742 84.8013 18.4369 83.4166C18.7025 83.1636 18.9786 82.917 19.2547 82.6683L19.6995 82.2679C20.6585 81.3911 21.628 80.529 22.6249 79.688C23.1202 79.2707 23.624 78.8639 24.1298 78.4571C25.1478 77.6351 26.1132 76.8848 27.0932 76.1534C27.6434 75.7424 28.1935 75.3335 28.752 74.9352C29.7995 74.187 30.8702 73.464 31.9557 72.7516L32.4594 72.4144C32.7903 72.1952 33.1192 71.976 33.4564 71.761C35.1615 70.6861 36.7338 69.7503 38.2661 68.8966C39.8912 67.9924 41.5584 67.1304 43.4426 66.2156C43.8094 66.0386 44.1845 65.87 44.5576 65.6993L45.1014 65.4484C46.3091 64.8899 47.5274 64.3419 48.7667 63.8234C49.4264 63.5452 50.0966 63.2796 50.7627 63.0162C51.9472 62.5483 53.1423 62.0951 54.35 61.6651C55.035 61.4206 55.7221 61.1762 56.4155 60.9422C57.7075 60.5101 59.0185 60.1054 60.3358 59.7155L60.9618 59.5258C61.3665 59.4036 61.769 59.2813 62.1779 59.1675C64.3194 58.571 66.25 58.0821 68.0837 57.6689C110.056 48.2307 159.26 60.1855 187.733 86.7446L190.688 89.5015L164.243 115.945L271.327 120.518L266.738 13.439L240.424 39.7641L237.671 37.2643C237.058 36.7058 236.432 36.1473 235.806 35.5908L235.61 35.418C212.126 13.6497 178.352 1.29442 140.483 0.60942C103.971 -0.0228884 66.6252 14.6951 40.768 39.9896C25.6474 54.7793 14.3016 73.8518 7.63501 95.5674Z" fill="#7FB23B"/>
<path d="M88.1673 189.694L87.7331 189.175C64.9026 163.51 65.9754 113.555 89.8661 90.1767C102.093 78.2281 120.571 70.8091 138.092 70.8091C138.495 70.8091 138.916 70.8091 139.336 70.8301C142.057 70.8786 144.748 71.0262 147.394 71.2749C122.972 61.9441 94.7707 59.6615 69.7988 65.2806C47.1178 70.3791 16.9926 84.2182 2.1544 121.156C1.49259 126.206 1.0858 131.473 0.950909 136.818C0.0235235 174.071 12.4821 210.107 35.1272 235.679C44.8184 246.949 54.7709 258.198 64.7571 269.175L65.8616 217.3L117.521 222.839C107.512 211.856 97.6498 200.721 88.1673 189.694Z" fill="#00476D"/>
</g>
<path d="M247.033 348.245C215.865 321.769 185.329 293.357 156.266 263.798L153.374 260.858L180.047 237.393L73.4795 225.965L71.199 333.129L100.578 307.289L103.164 309.936C142.998 350.69 183.659 387.748 227.474 423.227L249.563 441.119L271.653 423.227C284.129 413.122 296.438 402.812 308.266 392.555C294.469 383.914 269.723 367.573 247.033 348.245Z" fill="#7FB23B"/>
</svg>
