<svg width="40" height="40" viewBox="0 0 40 40" fill="none" xmlns="http://www.w3.org/2000/svg">
<g id="Arrow - Down Circle">
<path id="Fill 1" fill-rule="evenodd" clip-rule="evenodd" d="M20 37C29.374 37 37 29.374 37 20C37 10.626 29.374 3 20 3C10.626 3 3 10.626 3 20C3 29.374 10.626 37 20 37ZM20 0C31.028 0 40 8.972 40 20C40 31.028 31.028 40 20 40C8.972 40 0 31.028 0 20C0 8.972 8.972 0 20 0Z" fill="white"/>
<path id="Fill 3" fill-rule="evenodd" clip-rule="evenodd" d="M19.9999 14.4122C20.3979 14.4122 20.7819 14.5702 21.0619 14.8542L28.0039 21.8262C28.5899 22.4142 28.5859 23.3642 27.9999 23.9482C27.4119 24.5322 26.4619 24.5322 25.8779 23.9442L19.9999 18.0362L14.1199 23.9442C13.5359 24.5322 12.5859 24.5322 11.9979 23.9482C11.4119 23.3642 11.4099 22.4142 11.9939 21.8262L18.9379 14.8542C19.2179 14.5702 19.6019 14.4122 19.9999 14.4122Z" fill="white"/>
</g>
</svg>
