<svg width="40" height="41" viewBox="0 0 40 41" fill="none" xmlns="http://www.w3.org/2000/svg">
<g id="Arrow - Down Circle">
<path id="Fill 1" fill-rule="evenodd" clip-rule="evenodd" d="M20 3.5C10.626 3.5 3 11.126 3 20.5C3 29.874 10.626 37.5 20 37.5C29.374 37.5 37 29.874 37 20.5C37 11.126 29.374 3.5 20 3.5ZM20 40.5C8.972 40.5 0 31.528 0 20.5C0 9.472 8.972 0.5 20 0.5C31.028 0.5 40 9.472 40 20.5C40 31.528 31.028 40.5 20 40.5Z" fill="black"/>
<path id="Fill 3" fill-rule="evenodd" clip-rule="evenodd" d="M20.0001 26.0878C19.6021 26.0878 19.2181 25.9298 18.9381 25.6458L11.9961 18.6738C11.4101 18.0858 11.4141 17.1358 12.0001 16.5518C12.5881 15.9678 13.5381 15.9678 14.1221 16.5558L20.0001 22.4638L25.8801 16.5558C26.4641 15.9678 27.4141 15.9678 28.0021 16.5518C28.5881 17.1358 28.5901 18.0858 28.0061 18.6738L21.0621 25.6458C20.7821 25.9298 20.3981 26.0878 20.0001 26.0878Z" fill="black"/>
</g>
</svg>
