<svg width="25" height="24" viewBox="0 0 25 24" fill="none" xmlns="http://www.w3.org/2000/svg">
<path d="M8.992 19.191C9.015 18.855 9.063 18.52 9.135 18.19C9.198 17.895 9.389 17.06 9.669 15.85L9.676 15.82L10.063 14.152C10.142 13.812 10.203 13.548 10.244 13.46C10.0498 13.0111 9.95302 12.5261 9.96 12.037C9.96 10.7 10.716 9.664 11.696 9.664C12.056 9.658 12.4 9.814 12.638 10.09C12.876 10.366 12.986 10.733 12.94 11.086C12.94 11.539 12.855 11.884 12.487 13.121C12.43 13.3107 12.375 13.5011 12.322 13.692C12.2735 13.8649 12.2291 14.039 12.189 14.214C12.093 14.6 12.181 15.011 12.426 15.319C12.5448 15.4702 12.6982 15.5906 12.8733 15.6702C13.0483 15.7497 13.24 15.786 13.432 15.776C14.924 15.776 16.032 13.791 16.032 11.228C16.032 9.258 14.742 7.954 12.6 7.954C12.0638 7.93407 11.5293 8.02563 11.0303 8.22289C10.5313 8.42015 10.0786 8.71881 9.701 9.1C9.31526 9.48954 9.01094 9.95197 8.80577 10.4603C8.6006 10.9687 8.4987 11.5128 8.506 12.061C8.48114 12.6518 8.66211 13.2328 9.018 13.705C9.199 13.845 9.268 14.088 9.193 14.295C9.152 14.463 9.053 14.847 9.016 14.975C9.00567 15.0378 8.98087 15.0973 8.94355 15.1489C8.90623 15.2004 8.85743 15.2426 8.801 15.272C8.74625 15.3006 8.68549 15.3156 8.62374 15.316C8.562 15.3163 8.50106 15.3019 8.446 15.274C7.286 14.795 6.65 13.496 6.65 11.834C6.65 8.849 9.141 6.25 12.842 6.25C15.977 6.25 18.323 8.579 18.323 11.39C18.323 14.922 16.391 17.494 13.633 17.494C13.2407 17.5054 12.8512 17.4245 12.4959 17.258C12.1405 17.0914 11.8292 16.8438 11.587 16.535L11.544 16.712L11.337 17.564L11.335 17.572C11.189 18.172 11.087 18.589 11.047 18.745C10.941 19.1 10.807 19.448 10.647 19.785C12.6368 20.2592 14.7327 19.9532 16.5038 18.9299C18.275 17.9066 19.5869 16.2437 20.1698 14.283C20.7528 12.3223 20.5626 10.2127 19.6383 8.38795C18.714 6.56317 17.1258 5.16177 15.2001 4.4718C13.2745 3.78182 11.1577 3.85568 9.28478 4.6782C7.41191 5.50073 5.92525 7.00941 5.13037 8.89418C4.33548 10.779 4.29276 12.8966 5.01099 14.8119C5.72922 16.7272 7.15382 18.2936 8.992 19.191ZM12.5 22C6.977 22 2.5 17.523 2.5 12C2.5 6.477 6.977 2 12.5 2C18.023 2 22.5 6.477 22.5 12C22.5 17.523 18.023 22 12.5 22Z" fill="#414141"/>
</svg>
