<svg width="16" height="17" viewBox="0 0 16 17" fill="none" xmlns="http://www.w3.org/2000/svg">
<g id="vuesax/linear/edit">
<g id="edit">
<path id="Vector" d="M7.33325 1.49841H5.99992C2.66659 1.49841 1.33325 2.83175 1.33325 6.16508V10.1651C1.33325 13.4984 2.66659 14.8317 5.99992 14.8317H9.99992C13.3333 14.8317 14.6666 13.4984 14.6666 10.1651V8.83175" stroke="black" stroke-width="1.5" stroke-linecap="round" stroke-linejoin="round"/>
<path id="Vector_2" d="M10.6933 2.17842L5.43992 7.43175C5.23992 7.63175 5.03992 8.02509 4.99992 8.31175L4.71325 10.3184C4.60659 11.0451 5.11992 11.5518 5.84659 11.4518L7.85325 11.1651C8.13325 11.1251 8.52659 10.9251 8.73325 10.7251L13.9866 5.47175C14.8933 4.56509 15.3199 3.51175 13.9866 2.17842C12.6533 0.845085 11.5999 1.27175 10.6933 2.17842Z" stroke="black" stroke-width="1.5" stroke-miterlimit="10" stroke-linecap="round" stroke-linejoin="round"/>
<path id="Vector_3" d="M9.93994 2.93176C10.3866 4.5251 11.6333 5.77176 13.2333 6.2251" stroke="black" stroke-width="1.5" stroke-miterlimit="10" stroke-linecap="round" stroke-linejoin="round"/>
</g>
</g>
</svg>
