<svg width="16" height="10" viewBox="0 0 16 10" fill="none" xmlns="http://www.w3.org/2000/svg">
<path id="Vector" d="M8 1.33333C10.5841 1.33333 12.8886 2.75333 14.0136 5C12.8886 7.24667 10.5909 8.66667 8 8.66667C5.40909 8.66667 3.11136 7.24667 1.98636 5C3.11136 2.75333 5.41591 1.33333 8 1.33333ZM8 0C4.59091 0 1.67955 2.07333 0.5 5C1.67955 7.92667 4.59091 10 8 10C11.4091 10 14.3205 7.92667 15.5 5C14.3205 2.07333 11.4091 0 8 0ZM8 3.33333C8.94091 3.33333 9.70455 4.08 9.70455 5C9.70455 5.92 8.94091 6.66667 8 6.66667C7.05909 6.66667 6.29545 5.92 6.29545 5C6.29545 4.08 7.05909 3.33333 8 3.33333ZM8 2C6.30909 2 4.93182 3.34667 4.93182 5C4.93182 6.65333 6.30909 8 8 8C9.69091 8 11.0682 6.65333 11.0682 5C11.0682 3.34667 9.69091 2 8 2Z" fill="#737373"/>
</svg>
