<svg width="16" height="17" viewBox="0 0 16 17" fill="none" xmlns="http://www.w3.org/2000/svg">
<g id="vuesax/linear/trash">
<g id="trash">
<path id="Vector" d="M14 4.48165C11.78 4.26165 9.54667 4.14832 7.32 4.14832C6 4.14832 4.68 4.21498 3.36 4.34832L2 4.48165" stroke="black" stroke-width="1.5" stroke-linecap="round" stroke-linejoin="round"/>
<path id="Vector_2" d="M5.66675 3.80837L5.81341 2.93504C5.92008 2.3017 6.00008 1.82837 7.12675 1.82837H8.87341C10.0001 1.82837 10.0867 2.32837 10.1867 2.9417L10.3334 3.80837" stroke="black" stroke-width="1.5" stroke-linecap="round" stroke-linejoin="round"/>
<path id="Vector_3" d="M12.5667 6.58838L12.1334 13.3017C12.06 14.3484 12 15.1617 10.14 15.1617H5.86002C4.00002 15.1617 3.94002 14.3484 3.86668 13.3017L3.43335 6.58838" stroke="black" stroke-width="1.5" stroke-linecap="round" stroke-linejoin="round"/>
<path id="Vector_4" d="M6.88672 11.495H9.10672" stroke="black" stroke-width="1.5" stroke-linecap="round" stroke-linejoin="round"/>
<path id="Vector_5" d="M6.33325 8.82837H9.66659" stroke="black" stroke-width="1.5" stroke-linecap="round" stroke-linejoin="round"/>
</g>
</g>
</svg>
